<?xml version="1.0" standalone="no"?>
<!DOCTYPE svg PUBLIC "-//W3C//DTD SVG 20010904//EN"
 "http://www.w3.org/TR/2001/REC-SVG-20010904/DTD/svg10.dtd">
<svg version="1.0" xmlns="http://www.w3.org/2000/svg"
 width="300.000000pt" height="300.000000pt" viewBox="0 0 300.000000 300.000000"
 preserveAspectRatio="xMidYMid meet">
<metadata>
Created by potrace 1.10, written by Peter Selinger 2001-2011
</metadata>
<g transform="translate(0.000000,300.000000) scale(0.100000,-0.100000)"
fill="#000000" stroke="none">
<path d="M1285 2443 c-27 -9 -63 -20 -78 -26 -36 -13 -107 -81 -143 -138 -44
-68 -104 -191 -104 -214 0 -30 -19 -45 -56 -45 -30 0 -33 3 -39 40 -13 77 -65
40 -65 -46 0 -35 24 -94 38 -94 17 0 43 27 40 40 -2 11 8 16 34 18 36 3 37 2
36 -30 -1 -90 26 -157 82 -203 36 -30 90 -65 99 -65 4 0 37 -9 72 -20 93 -28
271 -42 323 -25 23 7 68 21 101 30 42 12 74 30 106 58 25 23 63 55 84 71 38
29 85 115 100 184 6 30 9 32 47 32 31 0 46 -6 64 -25 13 -14 27 -25 33 -25 23
0 41 33 41 76 0 37 -4 46 -24 56 -32 14 -54 5 -66 -27 -19 -49 -110 -26 -125
32 -18 76 -75 170 -142 234 -76 74 -111 98 -163 116 -49 18 -233 15 -295 -4z
m308 -42 c97 -47 208 -174 246 -280 9 -25 24 -58 34 -72 17 -26 17 -29 -3 -90
-26 -79 -60 -129 -109 -164 -21 -14 -48 -36 -60 -49 -14 -15 -62 -37 -123 -57
l-101 -33 -111 12 c-112 13 -228 43 -257 68 -8 8 -20 14 -26 14 -6 0 -26 17
-45 38 -26 29 -38 54 -47 103 -7 35 -17 76 -21 91 -6 19 -4 30 6 39 8 6 14 18
14 26 0 48 130 262 189 311 78 63 320 89 414 43z"/>
<path d="M1953 1653 c-60 -95 -178 -234 -246 -292 -71 -60 -78 -69 -74 -96 3
-17 20 -55 37 -85 53 -89 160 -363 160 -408 0 -10 9 -43 20 -74 11 -32 21 -89
22 -134 l3 -79 218 -3 218 -2 19 42 c10 24 24 86 30 139 10 82 10 104 -3 150
-9 30 -23 99 -32 154 -16 102 -37 186 -60 241 -7 17 -32 96 -54 175 -23 79
-57 176 -76 215 -30 62 -39 72 -66 78 -67 13 -98 8 -116 -21z m113 -21 c26
-16 64 -105 98 -223 19 -68 42 -144 51 -169 29 -80 63 -204 70 -254 3 -28 14
-82 23 -120 23 -97 21 -251 -4 -303 l-19 -38 -165 -3 c-91 -1 -175 0 -186 3
-19 4 -23 15 -29 72 -15 148 -111 434 -204 605 l-36 67 96 93 c53 51 123 129
154 173 32 44 64 86 73 93 17 13 60 16 78 4z"/>
<path d="M876 1568 c-36 -36 -49 -59 -74 -138 -29 -91 -38 -124 -98 -360 -37
-146 -43 -293 -16 -420 11 -52 29 -111 41 -131 l22 -37 91 -7 c164 -13 478 9
478 33 0 4 -7 29 -15 56 -20 65 -19 132 4 244 16 76 86 270 133 368 11 24 3
78 -15 92 -7 5 -48 29 -92 52 -129 69 -244 148 -327 221 -42 38 -79 69 -83 69
-3 0 -26 -19 -49 -42z m129 -73 c69 -59 149 -115 250 -172 39 -22 81 -46 95
-54 42 -24 60 -41 60 -58 0 -9 -27 -82 -60 -163 -74 -184 -94 -277 -88 -415 5
-103 5 -103 -20 -110 -13 -3 -120 -6 -237 -7 -232 -1 -236 0 -261 60 -29 69
-45 207 -35 305 20 193 134 598 183 651 31 34 30 34 113 -37z"/>
</g>
</svg>
